<svg width="1200" height="800" viewBox="0 0 1200 800" fill="none" xmlns="http://www.w3.org/2000/svg">
  <rect width="1200" height="800" rx="48" fill="#0F172A"/>
  <rect x="40" y="40" width="1120" height="720" rx="36" fill="#F8FAFC"/>
  <rect x="80" y="80" width="1040" height="80" rx="28" fill="#E2E8F0"/>
  <rect x="120" y="200" width="260" height="440" rx="32" fill="#E2E8F0"/>
  <rect x="420" y="200" width="360" height="360" rx="32" fill="#E2E8F0"/>
  <rect x="820" y="200" width="260" height="440" rx="32" fill="#E2E8F0"/>
  <rect x="420" y="580" width="360" height="120" rx="28" fill="#E2E8F0"/>
  <rect x="420" y="720" width="360" height="60" rx="24" fill="#94A3B8" fill-opacity="0.5"/>
  <circle cx="180" cy="240" r="18" fill="#3B82F6"/>
  <circle cx="180" cy="460" r="18" fill="#06B6D4"/>
  <circle cx="600" cy="560" r="22" fill="#6366F1"/>
  <rect x="160" y="300" width="180" height="16" rx="8" fill="#94A3B8"/>
  <rect x="160" y="330" width="200" height="10" rx="5" fill="#CBD5F5"/>
  <rect x="460" y="240" width="280" height="16" rx="8" fill="#94A3B8"/>
  <rect x="460" y="270" width="320" height="12" rx="6" fill="#CBD5F5" />
  <rect x="460" y="310" width="320" height="12" rx="6" fill="#CBD5F5" />
  <rect x="460" y="350" width="200" height="12" rx="6" fill="#CBD5F5" />
  <rect x="860" y="240" width="180" height="16" rx="8" fill="#94A3B8"/>
  <rect x="860" y="270" width="220" height="12" rx="6" fill="#CBD5F5"/>
  <rect x="860" y="310" width="220" height="12" rx="6" fill="#CBD5F5"/>
  <rect x="860" y="350" width="220" height="12" rx="6" fill="#CBD5F5"/>
  <rect x="860" y="420" width="220" height="150" rx="24" fill="#E2E8F0"/>
  <rect x="420" y="640" width="360" height="52" rx="24" fill="#D5E3FF"/>
  <text x="120" y="120" fill="#0F172A" font-family="Inter, sans-serif" font-size="32" font-weight="600">NexusAI Studio Mockup</text>
  <text x="860" y="610" fill="#0F172A" font-family="Inter, sans-serif" font-size="16">Prompt templates list</text>
  <text x="160" y="250" fill="#0F172A" font-family="Inter, sans-serif" font-size="16">Model & parameters</text>
  <text x="460" y="250" fill="#0F172A" font-family="Inter, sans-serif" font-size="16">Chat stream</text>
  <text x="460" y="620" fill="#0F172A" font-family="Inter, sans-serif" font-size="16">Prompt composer</text>
</svg>


